# xmcd CD database file
#
# Track frame offsets:
#	151
#	27284
#	61979
#	90432
#	118722
#	165033
#	185833
#	224358
#
# Disc length: 3331 seconds
#
# Revision: 0
# Processed by: cddbd v1.5.2PL0 Copyright (c) Steve Scherf et al.
# Submitted via: CDex 1.70beta2
#
DISCID=630d0108
DTITLE=The Osian Roberts/Steve Fishwick Quintet - On The Up And Up
DYEAR=2006
DGENRE=Jazz
TTITLE0=The Hit
TTITLE1=I Loves You, Porgy
TTITLE2=Hand Grenade
TTITLE3=A Pocket Full Of Grease
TTITLE4=The Road To Philly
TTITLE5=Now That I Am So In Love
TTITLE6=The Knife
TTITLE7=Swanee River (Old Folks At Home)
EXTD=YEAR: 2006
EXTT0=
EXTT1=
EXTT2=
EXTT3=
EXTT4=
EXTT5=
EXTT6=
EXTT7=
PLAYORDER=
